<?xml version="1.0" encoding="iso-8859-1"?>
<!-- Uploaded to: SVG Repo, www.svgrepo.com, Generator: SVG Repo Mixer Tools -->
<!DOCTYPE svg PUBLIC "-//W3C//DTD SVG 1.1//EN" "http://www.w3.org/Graphics/SVG/1.1/DTD/svg11.dtd">
<svg fill="#000000" height="800px" width="800px" version="1.1" id="Capa_1" xmlns="http://www.w3.org/2000/svg" xmlns:xlink="http://www.w3.org/1999/xlink" 
	 viewBox="0 0 477.007 477.007" xml:space="preserve">
<path d="M385.469,132.691c-0.264-14.51-6.165-28.048-16.618-38.119c-10.112-9.744-23.308-15.112-37.3-15.205
	c13.518-26.011,3.874-58.325-21.925-72.594c-0.001,0-0.001-0.001-0.002-0.001c-25.8-14.259-58.283-5.253-73.128,20.017
	C220.732,2.085,187.936-5.713,162.677,9.491c0,0,0,0,0,0c-25.256,15.206-33.7,47.852-19.227,73.354
	c-13.976,0.61-26.967,6.464-36.712,16.577c-10.072,10.451-15.47,24.197-15.199,38.704c0.264,14.509,6.165,28.047,16.616,38.119
	c10.111,9.745,23.309,15.115,37.302,15.21c-13.53,26.008-3.89,58.328,21.917,72.608c8.31,4.592,17.308,6.771,26.192,6.771
	c14.209-0.001,28.107-5.591,38.382-15.786l-0.668,99.08c-5.17-3.089-11.668-6.009-19.53-8.777
	c-15.281-5.38-34.529-9.438-44.773-9.438c-21.325,0-38.674,17.349-38.674,38.674s17.349,38.674,38.674,38.674
	c10.244,0,29.493-4.058,44.773-9.438c7.724-2.72,14.128-5.585,19.253-8.614l-0.497,73.746c-0.03,4.418,3.528,8.024,7.946,8.054
	c0.019,0,0.036,0,0.055,0c4.393,0,7.969-3.546,7.999-7.946l0.779-115.571c5.185,3.11,11.714,6.047,19.623,8.832
	c15.281,5.381,34.529,9.438,44.773,9.438c21.325,0,38.674-17.349,38.674-38.674s-17.349-38.674-38.674-38.674
	c-10.244,0-29.493,4.058-44.773,9.438c-7.771,2.736-14.206,5.62-19.347,8.67l0.399-59.238c6.898,6.901,15.554,11.834,25.268,14.245
	c14.086,3.496,28.69,1.297,41.123-6.193c25.251-15.215,33.694-47.862,19.222-73.355c13.976-0.615,26.963-6.471,36.704-16.583
	C380.344,160.946,385.739,147.198,385.469,132.691z M249.788,35.773c10.225-18.495,33.595-25.223,52.095-14.998
	c18.491,10.23,25.22,33.599,14.999,52.092c-1.548,2.798-3.771,6.011-6.492,9.389c-11.853,2.873-24.408,7.629-35.026,13.233
	c-6.416-5.932-14.177-10.221-22.642-12.509c-0.895-11.985-3.543-25.164-7.42-36.749C246.703,42.162,248.238,38.582,249.788,35.773z
	 M170.929,23.199c18.112-10.905,41.713-5.045,52.614,13.061c1.956,3.246,3.957,7.651,5.785,12.735
	c3.574,9.962,6.117,21.467,7.179,32.132c-9.138,0.341-18.134,2.99-26.042,7.754c-7.897,4.758-14.437,11.463-19.01,19.372
	c-8.921-5.922-17.893-13.542-25.024-21.352l0,0c-3.626-3.979-6.586-7.815-8.559-11.089
	C146.967,57.701,152.825,34.099,170.929,23.199z M146.561,175.449c-10.247,0.169-19.933-3.62-27.305-10.725
	c-7.373-7.105-11.536-16.655-11.722-26.893c-0.191-10.236,3.617-19.934,10.723-27.307c7.105-7.372,16.654-11.536,26.894-11.726
	c0.256-0.005,0.516-0.007,0.781-0.007c3.043,0,6.651,0.321,10.585,0.938c8.422,8.834,18.823,17.331,28.987,23.723
	c-1.936,8.551-1.775,17.421,0.469,25.874c-9.979,6.78-19.891,15.516-28.07,24.774C153.654,174.925,149.771,175.388,146.561,175.449z
	 M227.208,235.059c-10.228,18.494-33.597,25.224-52.093,15.001c-18.496-10.234-25.223-33.606-14.995-52.099
	c1.868-3.375,4.688-7.317,8.161-11.404c6.841-8.07,15.52-16.015,24.204-22.257c9.977,15.884,27.596,25.399,46.026,25.447
	c-0.667,10.681-2.779,22.248-5.974,32.312c-0.007,0.021-0.013,0.043-0.02,0.064C230.884,227.259,229.049,231.732,227.208,235.059z
	 M205.917,388.911c-15.019,5.226-31.594,8.349-38.942,8.349c-12.502,0-22.674-10.171-22.674-22.674s10.171-22.674,22.674-22.674
	c7.348,0,23.923,3.123,38.942,8.349c6.447,2.244,11.274,4.395,14.868,6.325h-45.757c-4.418,0-8,3.582-8,8s3.582,8,8,8h45.757
	C217.191,384.516,212.364,386.667,205.917,388.911z M272.739,318.761c15.019-5.226,31.594-8.349,38.942-8.349
	c12.502,0,22.674,10.171,22.674,22.674s-10.171,22.674-22.674,22.674c-7.348,0-23.922-3.123-38.941-8.349
	c-6.448-2.243-11.274-4.395-14.868-6.325h45.756c4.418,0,8-3.582,8-8s-3.582-8-8-8h-45.757
	C261.465,323.156,266.292,321.004,272.739,318.761z M306.092,247.63c-8.77,5.285-19.074,6.835-29.01,4.369
	c-9.937-2.467-18.318-8.657-23.602-17.433c-1.655-2.746-3.326-6.274-4.886-10.307c3.441-11.698,5.599-24.949,6.053-36.949
	c4.142-1.291,8.123-3.082,11.896-5.355c3.763-2.267,7.2-4.945,10.271-7.998c10.875,5.258,23.404,9.475,35.51,11.924
	c2.836,3.264,5.174,6.39,6.828,9.134C330.054,213.12,324.194,236.723,306.092,247.63z M358.753,160.296
	c-7.103,7.374-16.652,11.539-26.894,11.73c-3.818,0.075-8.636-0.398-13.94-1.362c-10.403-1.883-21.625-5.426-31.383-9.83
	c1.636-3.094,2.971-6.349,3.993-9.743c1.274-4.23-1.123-8.693-5.353-9.967c-4.229-1.271-8.693,1.123-9.967,5.353
	c-1.385,4.601-3.583,8.838-6.531,12.595c-0.004,0.005-0.008,0.01-0.013,0.016c-2.862,3.656-6.354,6.74-10.377,9.164
	c-4.037,2.432-8.402,4.082-12.976,4.903c-0.002,0-0.004,0.001-0.007,0.001c-15.553,2.792-31.477-4.42-39.632-17.955
	c-1.062-1.762-1.981-3.604-2.733-5.476c-0.002-0.005-0.004-0.011-0.007-0.017c-3.511-8.705-3.687-18.39-0.495-27.269
	c0-0.001,0-0.002,0.001-0.003c3.009-8.381,8.641-15.245,16.284-19.851c7.652-4.61,16.359-6.376,25.179-5.115
	c0.006,0.001,0.012,0.002,0.019,0.003c9.334,1.334,17.799,6.01,23.835,13.167c0.007,0.009,0.015,0.018,0.022,0.026
	c1.3,1.534,2.498,3.205,3.561,4.969c0.357,0.593,0.703,1.202,1.026,1.811c2.076,3.901,6.92,5.382,10.82,3.306
	c3.901-2.075,5.381-6.919,3.306-10.82c-0.301-0.566-0.615-1.132-0.938-1.691c9.593-4.765,20.678-8.722,31.008-10.991
	c5.227-1.156,10.028-1.806,13.88-1.879c10.229-0.187,19.936,3.617,27.31,10.721c7.373,7.104,11.536,16.654,11.722,26.892
	C369.662,143.224,365.856,152.923,358.753,160.296z"/>
</svg>